<svg width="11" height="10" viewBox="0 0 11 10" fill="none" xmlns="http://www.w3.org/2000/svg">
<path d="M5.5 3.67512C5.85287 3.67512 6.20573 3.55124 6.51449 3.28972L10.2416 0.206467C10.0762 0.0688225 9.87775 0 9.66823 0H1.33176C1.12225 0 0.923763 0.082587 0.74733 0.206467L4.47448 3.28972C4.79427 3.55124 5.14713 3.67512 5.5 3.67512Z" fill="#DDDDDD"/>
<path d="M10.6717 1.86719L6.88942 4.99173C6.48142 5.33584 5.99623 5.51478 5.50001 5.51478C5.00379 5.51478 4.52963 5.33584 4.1106 4.99173L0.328306 1.86719C0.284197 2.00483 0.262146 2.17001 0.262146 2.32142V7.96486C0.262146 8.70815 0.736312 9.30001 1.33177 9.30001H9.66824C10.2637 9.30001 10.7379 8.70815 10.7379 7.96486V2.32142C10.7379 2.17001 10.7158 2.0186 10.6717 1.86719Z" fill="#DDDDDD"/>
</svg>
