<svg width="11" height="12" viewBox="0 0 11 12" fill="none" xmlns="http://www.w3.org/2000/svg">
<path d="M5.50009 3.3039e-10C4.79461 5.62186e-06 4.11803 0.283002 3.61918 0.786735C3.12033 1.29047 2.84008 1.97367 2.84007 2.68606C2.84007 3.0388 2.90887 3.38809 3.04254 3.71398C3.17622 4.03988 3.37215 4.33599 3.61916 4.58542C3.86616 4.83485 4.1594 5.03271 4.48214 5.1677C4.80487 5.3027 5.15077 5.37218 5.50009 5.37218C5.84942 5.37218 6.19533 5.30271 6.51807 5.16772C6.84081 5.03273 7.13405 4.83488 7.38107 4.58544C7.62808 4.33601 7.82402 4.0399 7.9577 3.714C8.09138 3.3881 8.16018 3.03881 8.16017 2.68606C8.16017 2.33332 8.09136 1.98403 7.95768 1.65814C7.824 1.33225 7.62806 1.03614 7.38104 0.786712C7.13403 0.537288 6.84079 0.339436 6.51805 0.204452C6.19532 0.0694672 5.84942 -5.53199e-06 5.50009 3.3039e-10ZM5.50009 6.45943C4.04371 6.45956 2.64681 7.04291 1.61575 8.08156C0.584695 9.12021 0.00363405 10.5294 0 12H11C10.9964 10.5294 10.4153 9.12027 9.38431 8.08162C8.35329 7.04298 6.95645 6.45961 5.50009 6.45943Z" fill="#DDDDDD"/>
</svg>
