<svg width="78" height="73" viewBox="0 0 78 73" fill="none" xmlns="http://www.w3.org/2000/svg">
<path d="M11.856 21.5158H11.076V18.98L13.4161 20.0558L13.104 20.7473L11.856 20.2095V21.5158Z" fill="#191920"/>
<path d="M33.15 29.4306L29.796 27.9706L30.108 27.279L33.462 28.739L33.15 29.4306ZM26.442 26.5874L23.088 25.1274L23.4 24.4359L26.754 25.8959L26.442 26.5874ZM19.812 23.6674L16.458 22.2074L16.77 21.5159L20.124 22.9759L19.812 23.6674Z" fill="#191920"/>
<path d="M38.844 33.2727H38.064V31.5821L36.504 30.8906L36.816 30.199L38.844 31.1211V33.2727Z" fill="#191920"/>
<path d="M38.8441 60.782H38.0641V57.3242H38.8441V60.782ZM38.8441 53.9431H38.0641V50.4852H38.8441V53.9431ZM38.8441 47.0273H38.0641V43.5694H38.8441V47.0273ZM38.8441 40.1884H38.0641V36.7305H38.8441V40.1884Z" fill="#191920"/>
<path d="M38.844 66.7758L36.504 65.7L36.816 65.0084L38.064 65.5463V64.24H38.844V66.7758Z" fill="#191920"/>
<path d="M33.15 64.1632L29.796 62.6264L30.108 61.9348L33.462 63.4716L33.15 64.1632ZM26.442 61.0895L23.088 59.5527L23.4 58.8611L26.754 60.3979L26.442 61.0895ZM19.734 58.0927L16.38 56.5558L16.692 55.8643L20.046 57.4011L19.734 58.0927Z" fill="#191920"/>
<path d="M13.104 55.019L11.076 54.0969V51.9453H11.856V53.6358L13.4161 54.3274L13.104 55.019Z" fill="#191920"/>
<path d="M11.856 47.5652H11.076V43.1852H11.856V47.5652ZM11.856 38.882H11.076V34.5788H11.856V38.882ZM11.856 30.1988H11.076V25.8188H11.856V30.1988Z" fill="#191920"/>
<path d="M13.3328 17.0287L11.546 17.7981L11.8584 18.5022L13.6452 17.7328L13.3328 17.0287Z" fill="#191920"/>
<path d="M17.004 16.2905L16.692 15.599L19.968 14.139L20.28 14.8305L17.004 16.2905ZM23.634 13.4474L23.322 12.7558L26.598 11.2958L26.91 11.9874L23.634 13.4474ZM30.264 10.6042L29.952 9.91264L33.228 8.45264L33.54 9.14422L30.264 10.6042Z" fill="#191920"/>
<path d="M40.092 7.76096L38.454 7.06938L36.894 7.76096L36.582 7.06938L38.532 6.22412L40.404 7.06938L40.092 7.76096Z" fill="#191920"/>
<path d="M59.9041 16.2905L56.628 14.8305L56.9401 14.139L60.216 15.599L59.9041 16.2905ZM53.352 13.4474L50.076 11.9874L50.388 11.2958L53.6641 12.7558L53.352 13.4474ZM46.722 10.6042L43.446 9.14422L43.758 8.45264L47.034 9.91264L46.722 10.6042Z" fill="#191920"/>
<path d="M63.5626 17.0368L63.2494 17.7405L65.0352 18.512L65.3484 17.8083L63.5626 17.0368Z" fill="#191920"/>
<path d="M38.8441 33.1958H38.0641V31.0442L40.0921 30.1221L40.4041 30.8136L38.8441 31.5052V33.1958Z" fill="#191920"/>
<path d="M43.758 29.3537L43.446 28.6621L46.8 27.2021L47.112 27.8937L43.758 29.3537ZM50.466 26.5105L50.154 25.819L53.508 24.359L53.82 25.0505L50.466 26.5105ZM57.096 23.5905L56.784 22.899L60.138 21.439L60.45 22.1305L57.096 23.5905Z" fill="#191920"/>
<path d="M65.8321 21.4389H65.0521V20.1326L63.8041 20.6704L63.4921 19.9789L65.8321 18.9031V21.4389Z" fill="#191920"/>
<path d="M65.8321 48.564H65.0521V45.183H65.8321V48.564ZM65.8321 41.8019H65.0521V38.4209H65.8321V41.8019ZM65.8321 34.963H65.0521V31.5819H65.8321V34.963ZM65.8321 28.2009H65.0521V24.8198H65.8321V28.2009Z" fill="#191920"/>
<path d="M63.8041 55.019L63.4921 54.3274L65.0521 53.6358V51.9453H65.8321V54.0969L63.8041 55.019Z" fill="#191920"/>
<path d="M43.758 64.0863L43.446 63.3947L46.8 61.8579L47.112 62.5495L43.758 64.0863ZM50.466 61.0126L50.154 60.321L53.508 58.7842L53.82 59.4758L50.466 61.0126ZM57.096 58.0158L56.784 57.3242L60.138 55.7874L60.45 56.4789L57.096 58.0158Z" fill="#191920"/>
<path d="M38.0641 66.622V64.0862H38.8441V65.3925L40.0921 64.8546L40.4041 65.5462L38.0641 66.622Z" fill="#191920"/>
<path d="M38.8441 60.6285H38.0641V57.1706H38.8441V60.6285ZM38.8441 53.7895H38.0641V50.3316H38.8441V53.7895ZM38.8441 46.9506H38.0641V43.4927H38.8441V46.9506ZM38.8441 40.0348H38.0641V36.5769H38.8441V40.0348Z" fill="#191920"/>
<circle cx="65" cy="53" r="8.65" fill="white" stroke="#191920" stroke-width="0.7"/>
<path d="M65.7083 48H64.7083V58H65.7083V48Z" fill="#191920"/>
<path d="M70 53.5L70 52.5L60 52.5L60 53.5L70 53.5Z" fill="#191920"/>
</svg>
