<svg width="10" height="12" viewBox="0 0 10 12" fill="none" xmlns="http://www.w3.org/2000/svg">
<path d="M8.0484 5.01813V3.3252C8.0484 1.4916 6.5568 0 4.72333 0C2.88987 0 1.39827 1.4916 1.39827 3.3252V5.01813C0.621467 5.05347 2.02845e-08 5.69453 2.02845e-08 6.47987V10.5351C-0.000133313 11.3428 0.657067 12 1.46493 12H7.98173C8.7896 12 9.4468 11.3428 9.4468 10.5351V6.47987C9.4468 5.69453 8.8252 5.05333 8.0484 5.01813ZM2.88413 3.3252C2.88413 2.31107 3.7092 1.48613 4.72333 1.48613C5.73747 1.48613 6.56253 2.31107 6.56253 3.3252V5.01467H2.88413V3.3252Z" fill="#DDDDDD"/>
</svg>
