<svg width="29" height="29" viewBox="0 0 29 29" fill="none" xmlns="http://www.w3.org/2000/svg">
<path d="M26.0323 23.2967C27.9032 20.8478 29 17.8189 29 14.5C29 11.31 27.9677 8.34556 26.1935 5.96111C26.1935 5.96111 26.1935 5.96111 26.1935 5.92889C23.5806 2.35222 19.3226 0 14.5161 0C6.51613 0 0 6.50889 0 14.5C0 22.4911 6.51613 29 14.5161 29C19.129 29 23.2581 26.8411 25.9032 23.4578C25.9677 23.3933 26 23.3611 26.0323 23.2967ZM25 21.2344C24.1935 20.5578 23.2903 19.9456 22.3871 19.43C22.8065 17.98 23.0645 16.3367 23.0645 14.4678C23.0645 12.7922 22.8387 11.2778 22.4839 9.92444C23.4516 9.37667 24.3548 8.76444 25.1935 8.02333C26.3226 9.89222 27 12.1156 27 14.4678C27 16.9811 26.2581 19.3011 25 21.2344ZM8.06452 14.5C8.06452 13.1789 8.22581 11.9544 8.48387 10.8589C10.0645 11.5033 11.7742 11.8578 13.5161 11.9867V17.4644C11.8065 17.5611 10.1613 17.9478 8.58064 18.5278C8.25806 17.3356 8.06452 15.9822 8.06452 14.5ZM15.5161 2.9C16.871 3.96333 18.8387 5.89667 20 8.89333C18.5806 9.47333 17.0645 9.82778 15.5161 9.95667V2.9ZM13.5161 2.93222V9.95667C11.9677 9.86 10.4839 9.50556 9.09677 8.92556C10.2258 5.92889 12.1613 3.99556 13.5161 2.93222ZM13.5161 19.4944V26.0678C12.2258 25.0367 10.4194 23.2322 9.25806 20.4611C10.5806 19.9456 12.0323 19.6233 13.5161 19.4944ZM15.5161 26.1V19.4944C17.0323 19.5911 18.4839 19.9456 19.8387 20.4933C18.6774 23.2967 16.8387 25.1011 15.5161 26.1ZM15.5161 17.4644V11.9867C17.2903 11.89 19 11.5033 20.6129 10.8589C20.871 11.9544 21.0323 13.1789 21.0323 14.5C21.0323 16.0144 20.8387 17.3678 20.5161 18.5922C18.9355 17.9478 17.2581 17.5933 15.5161 17.4644ZM24 6.41222C23.3226 6.99222 22.6129 7.54 21.8387 7.99111C20.871 5.63889 19.5161 3.86667 18.2258 2.61C20.5161 3.31889 22.4839 4.64 24 6.41222ZM10.871 2.57778C9.58065 3.83444 8.19355 5.63889 7.22581 8.02333C6.45161 7.57222 5.70968 7.02444 5 6.41222C6.54839 4.60778 8.58065 3.28667 10.871 2.57778ZM3.83871 8.05556C4.70968 8.79667 5.6129 9.44111 6.6129 9.98889C6.25806 11.3422 6.03226 12.8244 6.03226 14.5C6.03226 16.3367 6.29032 17.98 6.70968 19.43C5.77419 19.9456 4.87097 20.5578 4.03226 21.2667C2.77419 19.3333 2.03226 17.0133 2.03226 14.5322C2.03226 12.1478 2.67742 9.92445 3.83871 8.05556ZM5.25806 22.8456C5.93548 22.2656 6.64516 21.7822 7.41935 21.3311C8.3871 23.5222 9.67742 25.1978 10.9032 26.4222C8.67742 25.7778 6.74193 24.5211 5.25806 22.8456ZM18.2581 26.39C19.4516 25.1978 20.7419 23.5544 21.7097 21.3633C22.4516 21.7822 23.129 22.2656 23.8065 22.8456C22.2903 24.4889 20.3871 25.7456 18.2581 26.39Z" fill="#191920"/>
</svg>
