<svg width="29" height="29" viewBox="0 0 29 29" fill="none" xmlns="http://www.w3.org/2000/svg">
<path d="M11.3532 0C5.10071 0 0 5.1065 0 11.3661C0 17.6257 5.10071 22.7322 11.3532 22.7322C17.6057 22.7322 22.7064 17.6586 22.7064 11.3661C22.7064 5.07356 17.6057 0 11.3532 0ZM11.3532 20.2942C6.44993 20.2942 2.43518 16.3079 2.43518 11.3661C2.43518 6.42431 6.44993 2.47089 11.3532 2.47089C16.2565 2.47089 20.2712 6.45726 20.2712 11.3661C20.2712 16.2749 16.2565 20.2942 11.3532 20.2942Z" fill="#191920"/>
<path d="M20.0409 18.2845C19.8106 18.0539 19.4815 17.9221 19.1524 17.9221C18.8233 17.9221 18.5272 18.0539 18.2968 18.2845C18.0664 18.5151 17.9348 18.8116 17.9348 19.1411C17.9348 19.4705 18.0664 19.8 18.2968 20.0306L26.8857 28.6293C27.3794 29.1235 28.1362 29.1235 28.6299 28.6293C29.1235 28.1351 29.1235 27.3774 28.6299 26.8832L20.0409 18.2845Z" fill="#191920"/>
</svg>
