<svg width="40" height="40" viewBox="0 0 40 40" fill="none" xmlns="http://www.w3.org/2000/svg">
<g clip-path="url(#clip0)">
<path d="M1.42857 30.2679C1.42857 30.3571 1.33929 30.3571 1.33929 30.4464L0 39.5536C0 39.7321 0.0892857 40 0.357143 40H0.446429L9.46429 38.6607C9.55357 38.6607 9.64286 38.5714 9.64286 38.5714L39.9107 8.39286C40.0893 8.21428 40.0893 8.03571 39.9107 7.85714L32.1429 0.0892857C32.0536 0.0892857 31.9643 0 31.875 0H31.7857C31.6964 0 31.6071 0.0892857 31.5179 0.0892857L1.42857 30.2679ZM9.28571 37.9464L0.892857 39.1964L2.05357 30.8036L2.14286 30.7143L28.3929 4.375L35.625 11.6071L9.28571 37.9464ZM31.875 0.892857L39.1071 8.125L36.1607 11.0714L28.9286 3.83929L31.875 0.892857Z" fill="#0000FF"/>
</g>
<defs>
<clipPath id="clip0">
<rect width="40" height="40" fill="white"/>
</clipPath>
</defs>
</svg>
