<svg width="28" height="28" viewBox="0 0 28 28" fill="none" xmlns="http://www.w3.org/2000/svg">
<path d="M22.4875 26.3481C21.7492 26.3481 21.0108 26.3481 20.2725 26.3481C18.5715 26.3481 16.8736 26.3481 15.1726 26.3481C13.2504 26.3481 11.3282 26.3481 9.40597 26.3481C8.03208 26.3481 6.65819 26.3481 5.28119 26.3481C5.02884 26.3481 4.77649 26.3512 4.52415 26.3481C4.52103 26.3481 4.5148 26.3481 4.51168 26.3481C4.45249 26.3481 4.39641 26.345 4.33722 26.3388C4.42757 26.3481 4.3528 26.3419 4.33411 26.3357C4.28115 26.3233 4.22507 26.3109 4.17211 26.2954C4.15964 26.2923 4.03191 26.2426 4.12849 26.2829C4.09111 26.2674 4.05372 26.2488 4.01634 26.2302C3.97895 26.2115 3.94468 26.1898 3.91041 26.1681C3.90107 26.1619 3.79203 26.0812 3.87303 26.1464C3.82007 26.1029 3.77022 26.0563 3.72349 26.0098C3.69545 25.9818 3.66741 25.9508 3.64249 25.9166C3.7048 25.9942 3.60822 25.8607 3.59887 25.8452C3.57707 25.8111 3.55837 25.7738 3.53968 25.7366C3.53345 25.7241 3.48672 25.6 3.52099 25.6962C3.49918 25.631 3.47737 25.5658 3.4618 25.4975C3.45868 25.4851 3.43687 25.3485 3.44933 25.4541C3.4431 25.4106 3.4431 25.3671 3.43999 25.3237C3.43999 25.305 3.43999 25.2926 3.43999 25.2771C3.43999 25.2616 3.43999 25.2461 3.43999 25.2305C3.43687 24.4141 3.43999 23.6007 3.43999 22.7842C3.43999 21.1451 3.43999 19.5059 3.43999 17.8636C3.43999 15.9327 3.43999 14.0017 3.43999 12.0707C3.43999 10.3757 3.43999 8.68064 3.43999 6.98561C3.43999 6.08221 3.43999 5.1757 3.43999 4.27231C3.43999 4.23195 3.43999 4.18848 3.43999 4.14813C3.28422 4.30335 3.12845 4.45857 2.97268 4.6138C3.67053 4.6138 4.36838 4.6138 5.06622 4.6138C6.74231 4.6138 8.41839 4.6138 10.0976 4.6138C12.1257 4.6138 14.1538 4.6138 16.1819 4.6138C17.9359 4.6138 19.6868 4.6138 21.4407 4.6138C22.0171 4.6138 22.5934 4.6138 23.1729 4.6138C23.4439 4.6138 23.7212 4.62621 23.9922 4.6138C24.0047 4.6138 24.014 4.6138 24.0265 4.6138C23.8707 4.45857 23.715 4.30335 23.5592 4.14813C23.5592 4.35613 23.5592 4.56412 23.5592 4.77212C23.5592 5.33093 23.5592 5.88973 23.5592 6.44853C23.5592 7.27122 23.5592 8.097 23.5592 8.91969C23.5592 9.91622 23.5592 10.9096 23.5592 11.9062C23.5592 12.9772 23.5592 14.0483 23.5592 15.1162C23.5592 16.181 23.5592 17.2428 23.5592 18.3076C23.5592 19.27 23.5592 20.2292 23.5592 21.1916C23.5592 21.9553 23.5592 22.719 23.5592 23.4796C23.5592 23.9608 23.5592 24.442 23.5592 24.9232C23.5592 25.0287 23.5592 25.1343 23.5592 25.2367C23.5592 25.2492 23.5592 25.2647 23.5592 25.2771C23.5592 25.3268 23.5561 25.3796 23.553 25.4292C23.5467 25.4851 23.553 25.4199 23.5561 25.4106C23.553 25.4323 23.5499 25.451 23.5436 25.4727C23.5343 25.513 23.5249 25.5534 23.5125 25.5938C23.5031 25.6217 23.4626 25.7366 23.4938 25.6558C23.4595 25.7366 23.4128 25.8142 23.366 25.8887C23.3536 25.9073 23.3442 25.9228 23.3318 25.9384C23.3349 25.9321 23.3754 25.8856 23.3411 25.9228C23.3069 25.9632 23.2695 26.0035 23.2321 26.0408C23.204 26.0687 23.1729 26.0967 23.1417 26.1215C23.1012 26.1557 23.1511 26.1153 23.1573 26.1122C23.1417 26.1246 23.123 26.137 23.1075 26.1464C23.0327 26.1929 22.9548 26.2395 22.8738 26.2736C22.9486 26.2426 22.8582 26.2767 22.8302 26.2861C22.7897 26.2985 22.7492 26.3109 22.7087 26.3202C22.6807 26.3264 22.6526 26.3326 22.6246 26.3357C22.6308 26.3357 22.6994 26.3295 22.6433 26.3326C22.5872 26.345 22.5374 26.3481 22.4875 26.3481C22.2445 26.3512 22.0077 26.5592 22.0202 26.8138C22.0327 27.0622 22.2258 27.2826 22.4875 27.2795C23.3754 27.2671 24.1729 26.6834 24.419 25.8235C24.4782 25.6124 24.4938 25.392 24.4938 25.1747C24.4938 24.8083 24.4938 24.442 24.4938 24.0788C24.4938 23.3896 24.4938 22.7004 24.4938 22.0143C24.4938 21.0985 24.4938 20.1796 24.4938 19.2638C24.4938 18.2113 24.4938 17.1589 24.4938 16.1096C24.4938 15.0169 24.4938 13.9272 24.4938 12.8344C24.4938 11.7975 24.4938 10.7606 24.4938 9.72064C24.4938 8.83276 24.4938 7.94178 24.4938 7.0539C24.4938 6.40818 24.4938 5.76245 24.4938 5.11672C24.4938 4.80938 24.5 4.49893 24.4938 4.19159C24.4938 4.17917 24.4938 4.16365 24.4938 4.15123C24.4938 3.89977 24.2789 3.68556 24.0265 3.68556C23.3287 3.68556 22.6308 3.68556 21.933 3.68556C20.2569 3.68556 18.5808 3.68556 16.9016 3.68556C14.8735 3.68556 12.8454 3.68556 10.8172 3.68556C9.06327 3.68556 7.31242 3.68556 5.55846 3.68556C4.70795 3.68556 3.85745 3.66383 3.00695 3.68556C2.99449 3.68556 2.98514 3.68556 2.97268 3.68556C2.72033 3.68556 2.50537 3.89977 2.50537 4.15123C2.50537 4.79696 2.50537 5.44269 2.50537 6.08842C2.50537 7.65307 2.50537 9.22082 2.50537 10.7855C2.50537 12.7227 2.50537 14.6598 2.50537 16.6001C2.50537 18.3666 2.50537 20.133 2.50537 21.8994C2.50537 22.9363 2.50537 23.9701 2.50537 25.007C2.50537 25.5193 2.56456 26.0191 2.88545 26.4506C3.27487 26.9721 3.86368 27.2764 4.51792 27.2826C4.59268 27.2826 4.66745 27.2826 4.74222 27.2826C5.85753 27.2826 6.97284 27.2826 8.08816 27.2826C9.95428 27.2826 11.8204 27.2826 13.6834 27.2826C15.5153 27.2826 17.3502 27.2826 19.1821 27.2826C20.2351 27.2826 21.285 27.2826 22.338 27.2826C22.3878 27.2826 22.4345 27.2826 22.4844 27.2826C22.7274 27.2826 22.9642 27.0684 22.9517 26.8169C22.9424 26.5623 22.7492 26.3481 22.4875 26.3481Z" fill="black"/>
<path d="M18.6116 3.68246C17.4526 3.68246 16.2937 3.68246 15.1379 3.68246C13.3061 3.68246 11.4742 3.68246 9.64235 3.68246C9.22177 3.68246 8.80431 3.68246 8.38373 3.68246C8.5395 3.83768 8.69527 3.9929 8.85104 4.14812C8.85104 3.64831 8.85104 3.15159 8.85104 2.65177C8.85104 2.35685 8.85104 2.05882 8.85104 1.7639C8.85104 1.6987 8.85104 1.63041 8.85104 1.56521C8.85104 1.56211 8.85104 1.559 8.85104 1.5559C8.85104 1.52796 8.85416 1.50002 8.85416 1.46897C8.85416 1.4876 8.83235 1.5559 8.85416 1.46587C8.86662 1.41309 8.8822 1.36032 8.89777 1.30754C8.87285 1.38515 8.88843 1.32617 8.89777 1.30754C8.91646 1.27339 8.93827 1.23614 8.95697 1.20199C8.9632 1.18647 9.00681 1.12748 8.95385 1.19889C8.96943 1.17715 8.98812 1.15853 9.00681 1.1368C9.0442 1.09644 9.08158 1.05919 9.1252 1.02814C9.05043 1.08402 9.19374 0.993991 9.21866 0.981574C9.23112 0.975365 9.309 0.94432 9.25604 0.962947C9.19997 0.984678 9.30589 0.950529 9.31835 0.947424C9.35262 0.938111 9.38689 0.931902 9.42116 0.925693C9.49281 0.913275 9.3495 0.928797 9.42427 0.928797C9.44608 0.928797 9.46789 0.925693 9.4897 0.925693C9.49593 0.925693 9.50216 0.925693 9.50839 0.925693C9.60497 0.925693 9.70466 0.925693 9.80124 0.925693C10.2748 0.925693 10.7452 0.925693 11.2187 0.925693C12.5895 0.925693 13.9603 0.925693 15.3311 0.925693C15.8669 0.925693 16.4028 0.925693 16.9386 0.925693C17.0881 0.925693 17.2346 0.925693 17.3841 0.925693C17.4184 0.925693 17.4526 0.925693 17.49 0.925693C17.4963 0.925693 17.5025 0.925693 17.5087 0.925693C17.5243 0.925693 17.5399 0.925693 17.5523 0.925693C17.6396 0.925693 17.5773 0.925693 17.5554 0.922589C17.5959 0.928798 17.6364 0.938111 17.6769 0.947424C17.705 0.953633 17.7299 0.962947 17.7548 0.97226C17.6769 0.947424 17.7361 0.962947 17.7548 0.97226C17.786 0.987782 17.814 1.0033 17.8452 1.02193C17.8576 1.02814 17.9293 1.07471 17.8826 1.04366C17.8358 1.01262 17.9044 1.06229 17.9137 1.0716C17.9324 1.09023 17.9542 1.10886 17.9729 1.12748C17.9947 1.15232 18.0196 1.17715 18.0383 1.20199C17.9978 1.14921 18.029 1.18957 18.0477 1.22372C18.0601 1.24856 18.0757 1.27029 18.0882 1.29512C18.0944 1.30754 18.1256 1.38515 18.1069 1.33238C18.0819 1.26718 18.1256 1.39757 18.1224 1.39447C18.1287 1.42241 18.1349 1.44724 18.1411 1.47518C18.1474 1.49691 18.1443 1.56211 18.1411 1.47829C18.1411 1.50623 18.1443 1.53417 18.1443 1.56521C18.1443 1.56832 18.1443 1.57453 18.1443 1.57763C18.1474 1.77632 18.1443 1.9719 18.1443 2.17058C18.1443 2.79148 18.1443 3.40926 18.1443 4.03016C18.1443 4.07362 18.1443 4.11708 18.1443 4.16054C18.1443 4.40269 18.3592 4.63863 18.6116 4.62621C18.8639 4.61379 19.0789 4.42132 19.0789 4.16054C19.0789 3.63589 19.0789 3.11123 19.0789 2.58658C19.0789 1.98432 19.1786 1.25477 18.8328 0.723903C18.5368 0.273756 18.0414 0.00677231 17.5025 0.000563384C17.4215 0.000563384 17.3374 0.000563384 17.2564 0.000563384C16.7891 0.000563384 16.3218 0.000563384 15.8544 0.000563384C14.4401 0.000563384 13.0226 0.000563384 11.6082 0.000563384C11.0692 0.000563384 10.5302 0.000563384 9.99128 0.000563384C9.58004 0.000563384 9.19373 -0.0180634 8.80431 0.158891C8.25912 0.407248 7.92577 0.978469 7.91642 1.56521C7.91331 1.73906 7.91642 1.91602 7.91642 2.09297C7.91642 2.73249 7.91642 3.37511 7.91642 4.01463C7.91642 4.0612 7.91642 4.11087 7.91642 4.15744C7.91642 4.4089 8.13139 4.62311 8.38373 4.62311C9.54266 4.62311 10.7016 4.62311 11.8574 4.62311C13.6892 4.62311 15.5211 4.62311 17.3529 4.62311C17.7735 4.62311 18.191 4.62311 18.6116 4.62311C18.8546 4.62311 19.0913 4.4089 19.0789 4.15744C19.0695 3.89666 18.8733 3.68246 18.6116 3.68246Z" fill="black"/>
<path d="M0.46778 4.61379C0.701435 4.61379 0.935089 4.61379 1.16874 4.61379C1.79805 4.61379 2.42736 4.61379 3.05667 4.61379C3.99441 4.61379 4.93214 4.61379 5.86987 4.61379C7.01011 4.61379 8.15034 4.61379 9.29057 4.61379C10.5398 4.61379 11.786 4.61379 13.0353 4.61379C14.297 4.61379 15.5556 4.61379 16.8174 4.61379C17.9919 4.61379 19.1695 4.61379 20.344 4.61379C21.3409 4.61379 22.3378 4.61379 23.3348 4.61379C24.0482 4.61379 24.7616 4.61379 25.4782 4.61379C25.8177 4.61379 26.1542 4.61999 26.4938 4.61379C26.5094 4.61379 26.5218 4.61379 26.5374 4.61379C26.7804 4.61379 27.0172 4.39958 27.0047 4.14812C26.9922 3.89665 26.7991 3.68245 26.5374 3.68245C26.3037 3.68245 26.0701 3.68245 25.8364 3.68245C25.2071 3.68245 24.5778 3.68245 23.9485 3.68245C23.0108 3.68245 22.073 3.68245 21.1353 3.68245C19.9951 3.68245 18.8548 3.68245 17.7146 3.68245C16.4653 3.68245 15.2192 3.68245 13.9699 3.68245C12.7082 3.68245 11.4495 3.68245 10.1878 3.68245C9.0133 3.68245 7.83569 3.68245 6.66118 3.68245C5.66426 3.68245 4.66733 3.68245 3.6704 3.68245C2.95698 3.68245 2.24355 3.68245 1.52701 3.68245C1.18744 3.68245 0.850974 3.67624 0.511396 3.68245C0.495819 3.68245 0.483357 3.68245 0.46778 3.68245C0.22478 3.68245 -0.0119904 3.89665 0.000471177 4.14812C0.00981736 4.39958 0.206087 4.61379 0.46778 4.61379Z" fill="black"/>
<path d="M7.31845 8.88862C7.31845 9.32635 7.31845 9.76098 7.31845 10.1987C7.31845 11.248 7.31845 12.2973 7.31845 13.3466C7.31845 14.6164 7.31845 15.8861 7.31845 17.1558C7.31845 18.2548 7.31845 19.3507 7.31845 20.4496C7.31845 20.9836 7.30287 21.5207 7.31845 22.0515C7.31845 22.0578 7.31845 22.0671 7.31845 22.0733C7.31845 22.3154 7.53341 22.5514 7.78575 22.5389C8.0381 22.5265 8.25306 22.3341 8.25306 22.0733C8.25306 21.6355 8.25306 21.2009 8.25306 20.7632C8.25306 19.7139 8.25306 18.6646 8.25306 17.6153C8.25306 16.3455 8.25306 15.0758 8.25306 13.8061C8.25306 12.7071 8.25306 11.6112 8.25306 10.5123C8.25306 9.97829 8.26864 9.44122 8.25306 8.91035C8.25306 8.90415 8.25306 8.89483 8.25306 8.88862C8.25306 8.64648 8.0381 8.41054 7.78575 8.42295C7.53029 8.43537 7.31845 8.62785 7.31845 8.88862Z" fill="black"/>
<path d="M13.0323 8.88862C13.0323 9.32635 13.0323 9.76098 13.0323 10.1987C13.0323 11.248 13.0323 12.2973 13.0323 13.3466C13.0323 14.6164 13.0323 15.8861 13.0323 17.1558C13.0323 18.2548 13.0323 19.3507 13.0323 20.4496C13.0323 20.9836 13.0167 21.5207 13.0323 22.0515C13.0323 22.0578 13.0323 22.0671 13.0323 22.0733C13.0323 22.3154 13.2473 22.5514 13.4996 22.5389C13.752 22.5265 13.9669 22.3341 13.9669 22.0733C13.9669 21.6355 13.9669 21.2009 13.9669 20.7632C13.9669 19.7139 13.9669 18.6646 13.9669 17.6153C13.9669 16.3455 13.9669 15.0758 13.9669 13.8061C13.9669 12.7071 13.9669 11.6112 13.9669 10.5123C13.9669 9.97829 13.9825 9.44122 13.9669 8.91035C13.9669 8.90415 13.9669 8.89483 13.9669 8.88862C13.9669 8.64648 13.752 8.41054 13.4996 8.42295C13.2473 8.43537 13.0323 8.62785 13.0323 8.88862Z" fill="black"/>
<path d="M18.7457 8.88862C18.7457 9.32635 18.7457 9.76098 18.7457 10.1987C18.7457 11.248 18.7457 12.2973 18.7457 13.3466C18.7457 14.6164 18.7457 15.8861 18.7457 17.1558C18.7457 18.2548 18.7457 19.3507 18.7457 20.4496C18.7457 20.9836 18.7301 21.5207 18.7457 22.0515C18.7457 22.0578 18.7457 22.0671 18.7457 22.0733C18.7457 22.3154 18.9607 22.5514 19.213 22.5389C19.4653 22.5265 19.6803 22.3341 19.6803 22.0733C19.6803 21.6355 19.6803 21.2009 19.6803 20.7632C19.6803 19.7139 19.6803 18.6646 19.6803 17.6153C19.6803 16.3455 19.6803 15.0758 19.6803 13.8061C19.6803 12.7071 19.6803 11.6112 19.6803 10.5123C19.6803 9.97829 19.6959 9.44122 19.6803 8.91035C19.6803 8.90415 19.6803 8.89483 19.6803 8.88862C19.6803 8.64648 19.4653 8.41054 19.213 8.42295C18.9607 8.43537 18.7457 8.62785 18.7457 8.88862Z" fill="black"/>
</svg>
